<?xml version="1.0" encoding="UTF-8" standalone="no"?>
<!DOCTYPE svg PUBLIC "-//W3C//DTD SVG 20010904//EN"
              "http://www.w3.org/TR/2001/REC-SVG-20010904/DTD/svg10.dtd">

<svg xmlns="http://www.w3.org/2000/svg"
     width="5000" height="5000"
     viewBox="0 0 5000 5000">
  <path fill="#fff" stroke="#fff" stroke-width="0"
        d="M 278.00,3698.00
           C 278.00,3698.00 528.00,3698.00 528.00,3698.00
             528.00,3698.00 528.00,2279.00 528.00,2279.00
             528.00,2279.00 546.00,2302.00 546.00,2302.00
             546.00,2302.00 590.16,2355.00 590.16,2355.00
             635.22,2405.47 683.64,2452.66 736.00,2495.58
             917.20,2644.09 1133.93,2737.17 1366.00,2767.72
             1400.47,2772.26 1449.62,2776.95 1484.00,2777.00
             1484.00,2777.00 1501.00,2778.00 1501.00,2778.00
             1501.00,2778.00 1555.00,2778.00 1555.00,2778.00
             1555.00,2778.00 1572.00,2777.00 1572.00,2777.00
             1572.00,2777.00 1602.00,2776.00 1602.00,2776.00
             1602.00,2776.00 1625.00,2774.17 1625.00,2774.17
             1625.00,2774.17 1644.00,2772.83 1644.00,2772.83
             1644.00,2772.83 1707.00,2765.27 1707.00,2765.27
             1781.18,2754.58 1852.90,2737.70 1924.00,2714.00
             2202.70,2621.10 2437.84,2433.73 2592.58,2184.00
             2648.54,2093.67 2691.51,1997.40 2723.02,1896.00
             2744.02,1828.44 2761.64,1747.33 2769.16,1677.00
             2769.16,1677.00 2772.83,1644.00 2772.83,1644.00
             2772.83,1644.00 2774.17,1625.00 2774.17,1625.00
             2774.17,1625.00 2776.00,1602.00 2776.00,1602.00
             2776.00,1602.00 2777.00,1571.00 2777.00,1571.00
             2777.00,1571.00 2778.00,1555.00 2778.00,1555.00
             2778.00,1555.00 2778.00,1501.00 2778.00,1501.00
             2778.00,1501.00 2777.04,1489.00 2777.04,1489.00
             2777.04,1489.00 2777.04,1474.00 2777.04,1474.00
             2777.04,1474.00 2776.00,1454.00 2776.00,1454.00
             2776.00,1454.00 2775.09,1444.00 2775.09,1444.00
             2775.09,1444.00 2767.72,1366.00 2767.72,1366.00
             2737.17,1133.93 2644.09,917.20 2495.58,736.00
             2385.33,601.50 2249.42,492.94 2095.00,413.26
             2095.00,413.26 2071.00,401.74 2071.00,401.74
             2023.57,378.79 1975.00,359.00 1925.00,342.33
             1853.32,318.44 1781.78,301.51 1707.00,290.73
             1707.00,290.73 1644.00,283.17 1644.00,283.17
             1644.00,283.17 1625.00,281.83 1625.00,281.83
             1625.00,281.83 1602.00,280.00 1602.00,280.00
             1602.00,280.00 1583.00,279.00 1583.00,279.00
             1583.00,279.00 1571.00,279.00 1571.00,279.00
             1571.00,279.00 1555.00,278.00 1555.00,278.00
             1555.00,278.00 1501.00,278.00 1501.00,278.00
             1501.00,278.00 1489.00,278.96 1489.00,278.96
             1489.00,278.96 1474.00,278.96 1474.00,278.96
             1474.00,278.96 1454.00,280.00 1454.00,280.00
             1454.00,280.00 1431.00,281.83 1431.00,281.83
             1431.00,281.83 1412.00,283.17 1412.00,283.17
             1412.00,283.17 1349.00,290.73 1349.00,290.73
             1222.65,308.94 1099.92,346.12 985.00,401.74
             943.17,421.99 902.28,444.14 863.00,469.05
             740.73,546.60 634.85,641.17 545.21,755.00
             423.53,909.52 340.75,1089.22 302.20,1282.00
             289.48,1345.60 279.75,1421.32 279.00,1486.00
             279.00,1486.00 278.00,1501.00 278.00,1501.00
             278.00,1501.00 278.00,1965.00 278.00,1965.00
             278.00,1965.00 278.00,3698.00 278.00,3698.00 Z
           M 1498.00,528.14
           C 1498.00,528.14 1551.00,528.14 1551.00,528.14
             1551.00,528.14 1566.00,529.00 1566.00,529.00
             1630.66,529.75 1708.13,541.91 1771.00,557.63
             1940.00,599.88 2093.08,684.53 2219.00,804.96
             2219.00,804.96 2229.00,814.01 2229.00,814.01
             2229.00,814.01 2251.04,837.00 2251.04,837.00
             2370.45,961.85 2455.95,1115.32 2497.87,1283.00
             2510.58,1333.84 2520.43,1387.72 2524.09,1440.00
             2524.09,1440.00 2526.00,1460.00 2526.00,1460.00
             2526.00,1460.00 2526.00,1469.00 2526.00,1469.00
             2526.00,1469.00 2527.04,1479.00 2527.04,1479.00
             2527.04,1479.00 2527.04,1493.00 2527.04,1493.00
             2527.04,1493.00 2528.00,1505.00 2528.00,1505.00
             2528.00,1505.00 2528.00,1551.00 2528.00,1551.00
             2528.00,1551.00 2527.00,1568.00 2527.00,1568.00
             2527.00,1568.00 2524.17,1615.00 2524.17,1615.00
             2517.77,1681.87 2507.47,1743.33 2488.58,1808.00
             2443.49,1962.37 2362.18,2102.80 2251.04,2219.00
             2251.04,2219.00 2241.99,2229.00 2241.99,2229.00
             2241.99,2229.00 2219.00,2251.04 2219.00,2251.04
             2114.97,2350.54 1991.02,2426.45 1855.00,2473.66
             1796.10,2494.10 1727.83,2510.58 1666.00,2518.72
             1666.00,2518.72 1615.00,2524.17 1615.00,2524.17
             1615.00,2524.17 1569.00,2527.00 1569.00,2527.00
             1569.00,2527.00 1552.00,2528.00 1552.00,2528.00
             1552.00,2528.00 1504.00,2528.00 1504.00,2528.00
             1504.00,2528.00 1492.00,2527.04 1492.00,2527.04
             1492.00,2527.04 1479.00,2527.04 1479.00,2527.04
             1479.00,2527.04 1468.00,2526.04 1468.00,2526.04
             1468.00,2526.04 1402.00,2520.15 1402.00,2520.15
             1330.86,2511.65 1260.48,2494.70 1193.00,2470.69
             1089.86,2433.99 997.38,2382.88 911.00,2315.58
             843.27,2262.80 778.89,2196.69 727.37,2128.00
             557.56,1901.58 493.62,1616.35 545.61,1339.00
             561.90,1252.09 590.77,1167.52 629.26,1088.00
             708.31,924.66 835.72,783.78 988.00,685.69
             1023.39,662.90 1060.16,643.06 1098.00,624.74
             1137.08,605.83 1181.53,587.91 1223.00,575.02
             1289.27,554.43 1345.22,542.77 1414.00,534.28
             1414.00,534.28 1468.00,529.96 1468.00,529.96
             1468.00,529.96 1481.00,529.00 1481.00,529.00
             1487.42,528.99 1491.52,529.22 1498.00,528.14 Z
           M 3972.00,802.00
           C 3972.00,802.00 3972.00,1052.00 3972.00,1052.00
             3972.00,1052.00 4222.00,1052.00 4222.00,1052.00
             4222.00,1052.00 4222.00,802.00 4222.00,802.00
             4222.00,802.00 3972.00,802.00 3972.00,802.00 Z
           M 4472.00,802.00
           C 4472.00,802.00 4472.00,1052.00 4472.00,1052.00
             4472.00,1052.00 4722.00,1052.00 4722.00,1052.00
             4722.00,1052.00 4722.00,802.00 4722.00,802.00
             4722.00,802.00 4472.00,802.00 4472.00,802.00 Z
           M 3972.00,1302.00
           C 3972.00,1302.00 3972.00,2058.00 3972.00,2058.00
             3972.00,2058.00 4031.00,2079.80 4031.00,2079.80
             4072.36,2096.35 4113.41,2114.83 4153.00,2135.26
             4153.00,2135.26 4198.00,2159.31 4198.00,2159.31
             4204.77,2162.98 4215.13,2170.00 4222.00,2172.00
             4222.00,2172.00 4222.00,1302.00 4222.00,1302.00
             4222.00,1302.00 3972.00,1302.00 3972.00,1302.00 Z
           M 4472.00,1302.00
           C 4472.00,1302.00 4472.00,2346.00 4472.00,2346.00
             4472.00,2348.09 4471.88,2351.06 4472.60,2353.00
             4474.09,2357.05 4487.07,2368.25 4491.00,2371.91
             4491.00,2371.91 4545.96,2425.00 4545.96,2425.00
             4590.85,2471.93 4633.38,2521.01 4672.37,2573.00
             4682.91,2587.04 4713.49,2628.62 4721.00,2642.00
             4721.00,2642.00 4722.00,2629.00 4722.00,2629.00
             4722.00,2629.00 4722.00,2606.00 4722.00,2606.00
             4722.00,2606.00 4722.00,2526.00 4722.00,2526.00
             4722.00,2526.00 4722.00,2250.00 4722.00,2250.00
             4722.00,2250.00 4722.00,1302.00 4722.00,1302.00
             4722.00,1302.00 4472.00,1302.00 4472.00,1302.00 Z
           M 3437.00,2222.14
           C 3437.00,2222.14 3416.00,2223.00 3416.00,2223.00
             3416.00,2223.00 3403.00,2224.00 3403.00,2224.00
             3403.00,2224.00 3375.00,2225.83 3375.00,2225.83
             3375.00,2225.83 3336.00,2229.17 3336.00,2229.17
             3256.52,2237.12 3173.25,2255.33 3097.00,2279.02
             2896.26,2341.42 2712.20,2457.23 2567.04,2609.00
             2470.34,2710.10 2391.63,2827.98 2333.31,2955.00
             2315.09,2994.68 2299.47,3035.60 2285.67,3077.00
             2262.19,3147.43 2245.32,3219.53 2234.73,3293.00
             2234.73,3293.00 2227.17,3356.00 2227.17,3356.00
             2227.17,3356.00 2225.83,3375.00 2225.83,3375.00
             2225.83,3375.00 2224.00,3398.00 2224.00,3398.00
             2224.00,3398.00 2223.00,3417.00 2223.00,3417.00
             2223.00,3417.00 2223.00,3429.00 2223.00,3429.00
             2223.00,3429.00 2222.00,3445.00 2222.00,3445.00
             2222.00,3445.00 2222.00,3499.00 2222.00,3499.00
             2222.00,3499.00 2223.00,3516.00 2223.00,3516.00
             2223.05,3545.02 2225.95,3574.14 2228.83,3603.00
             2239.71,3711.76 2265.73,3817.89 2304.58,3920.00
             2319.94,3960.40 2337.44,4000.59 2357.26,4039.00
             2443.14,4205.45 2561.49,4348.93 2710.00,4463.35
             2811.74,4541.74 2927.97,4605.62 3049.00,4648.69
             3130.09,4677.55 3207.80,4696.99 3293.00,4709.27
             3293.00,4709.27 3356.00,4716.83 3356.00,4716.83
             3356.00,4716.83 3375.00,4718.17 3375.00,4718.17
             3375.00,4718.17 3398.00,4720.00 3398.00,4720.00
             3398.00,4720.00 3417.00,4721.00 3417.00,4721.00
             3417.00,4721.00 3429.00,4721.00 3429.00,4721.00
             3429.00,4721.00 3445.00,4722.00 3445.00,4722.00
             3445.00,4722.00 3499.00,4722.00 3499.00,4722.00
             3499.00,4722.00 3516.00,4721.00 3516.00,4721.00
             3551.07,4720.95 3586.15,4716.89 3621.00,4713.16
             3707.02,4703.96 3806.51,4680.31 3888.00,4651.31
             4054.19,4592.17 4207.39,4499.01 4335.00,4376.96
             4501.61,4217.61 4622.50,4014.03 4681.12,3791.00
             4695.10,3737.80 4707.31,3675.65 4713.16,3621.00
             4713.16,3621.00 4716.83,3588.00 4716.83,3588.00
             4716.83,3588.00 4718.17,3569.00 4718.17,3569.00
             4718.17,3569.00 4720.00,3541.00 4720.00,3541.00
             4720.00,3541.00 4720.96,3530.00 4720.96,3530.00
             4720.96,3530.00 4720.96,3514.00 4720.96,3514.00
             4720.96,3514.00 4722.00,3499.00 4722.00,3499.00
             4722.00,3499.00 4722.00,3445.00 4722.00,3445.00
             4722.00,3445.00 4721.00,3428.00 4721.00,3428.00
             4721.00,3428.00 4720.00,3398.00 4720.00,3398.00
             4720.00,3398.00 4718.17,3375.00 4718.17,3375.00
             4718.17,3375.00 4716.83,3356.00 4716.83,3356.00
             4716.83,3356.00 4713.16,3323.00 4713.16,3323.00
             4705.64,3252.67 4688.02,3171.56 4667.02,3104.00
             4609.45,2918.72 4511.25,2749.40 4376.96,2609.00
             4222.91,2447.94 4029.27,2330.66 3815.00,2269.58
             3753.97,2252.18 3684.08,2237.59 3621.00,2230.84
             3621.00,2230.84 3588.00,2227.17 3588.00,2227.17
             3588.00,2227.17 3569.00,2225.83 3569.00,2225.83
             3569.00,2225.83 3546.00,2224.00 3546.00,2224.00
             3546.00,2224.00 3527.00,2223.00 3527.00,2223.00
             3527.00,2223.00 3515.00,2223.00 3515.00,2223.00
             3515.00,2223.00 3499.00,2222.14 3499.00,2222.14
             3499.00,2222.14 3467.00,2222.14 3467.00,2222.14
             3467.00,2222.14 3437.00,2222.14 3437.00,2222.14 Z
           M 3442.00,2472.14
           C 3442.00,2472.14 3495.00,2472.14 3495.00,2472.14
             3495.00,2472.14 3510.00,2473.00 3510.00,2473.00
             3574.66,2473.75 3652.13,2485.91 3715.00,2501.63
             3884.00,2543.88 4037.08,2628.53 4163.00,2748.96
             4163.00,2748.96 4173.00,2758.01 4173.00,2758.01
             4173.00,2758.01 4195.04,2781.00 4195.04,2781.00
             4314.45,2905.85 4399.95,3059.32 4441.87,3227.00
             4454.58,3277.84 4464.43,3331.72 4468.09,3384.00
             4468.09,3384.00 4470.00,3404.00 4470.00,3404.00
             4470.00,3404.00 4470.00,3413.00 4470.00,3413.00
             4470.00,3413.00 4471.04,3423.00 4471.04,3423.00
             4471.04,3423.00 4471.04,3437.00 4471.04,3437.00
             4471.04,3437.00 4472.00,3449.00 4472.00,3449.00
             4472.00,3449.00 4472.00,3495.00 4472.00,3495.00
             4472.00,3495.00 4471.00,3512.00 4471.00,3512.00
             4471.00,3512.00 4468.17,3559.00 4468.17,3559.00
             4461.77,3625.87 4451.47,3687.33 4432.58,3752.00
             4387.49,3906.37 4306.18,4046.80 4195.04,4163.00
             4195.04,4163.00 4185.99,4173.00 4185.99,4173.00
             4185.99,4173.00 4163.00,4195.04 4163.00,4195.04
             4058.97,4294.54 3935.02,4370.45 3799.00,4417.66
             3740.10,4438.10 3671.83,4454.58 3610.00,4462.72
             3610.00,4462.72 3559.00,4468.17 3559.00,4468.17
             3559.00,4468.17 3513.00,4471.00 3513.00,4471.00
             3513.00,4471.00 3496.00,4472.00 3496.00,4472.00
             3496.00,4472.00 3448.00,4472.00 3448.00,4472.00
             3448.00,4472.00 3436.00,4471.04 3436.00,4471.04
             3436.00,4471.04 3423.00,4471.04 3423.00,4471.04
             3423.00,4471.04 3412.00,4470.04 3412.00,4470.04
             3412.00,4470.04 3346.00,4464.15 3346.00,4464.15
             3274.86,4455.65 3204.48,4438.70 3137.00,4414.69
             3033.86,4377.99 2941.38,4326.88 2855.00,4259.58
             2787.27,4206.80 2722.89,4140.69 2671.37,4072.00
             2501.56,3845.58 2437.62,3560.35 2489.61,3283.00
             2505.90,3196.09 2534.77,3111.52 2573.26,3032.00
             2652.31,2868.66 2779.72,2727.78 2932.00,2629.69
             2967.39,2606.90 3004.16,2587.06 3042.00,2568.74
             3081.08,2549.83 3125.53,2531.91 3167.00,2519.02
             3233.27,2498.43 3289.22,2486.77 3358.00,2478.28
             3358.00,2478.28 3412.00,2473.96 3412.00,2473.96
             3412.00,2473.96 3425.00,2473.00 3425.00,2473.00
             3431.42,2472.99 3435.52,2473.22 3442.00,2472.14 Z
           M 278.00,3948.00
           C 278.00,3948.00 278.00,4198.00 278.00,4198.00
             278.00,4198.00 528.00,4198.00 528.00,4198.00
             528.00,4198.00 528.00,3948.00 528.00,3948.00
             528.00,3948.00 278.00,3948.00 278.00,3948.00 Z" />
</svg>
