<?xml version="1.0" encoding="iso-8859-1"?>
<!-- Generator: Adobe Illustrator 19.1.0, SVG Export Plug-In . SVG Version: 6.00 Build 0)  -->
<svg version="1.1" id="Capa_1" xmlns="http://www.w3.org/2000/svg" xmlns:xlink="http://www.w3.org/1999/xlink" x="0px" y="0px"
	 viewBox="0 0 64 162" style="enable-background:new 0 0 64 162;" xml:space="preserve">
<g fill="#fff">
	<g transform="translate(0,48)">
		<polygon stroke="#fff" points="42.917,55.002 42.996,3.41 50.293,10.707 51.707,9.146 42.707,0 41.293,0 32.293,9.146 33.707,10.634 
			40.996,3.381 40.917,54.979"/>
		<polygon stroke="#fff" points="12.293,54.854 21.293,64 22.707,64 31.707,54.854 30.293,53.366 22.996,60.627 22.917,9.017 20.917,9.011 
			20.996,60.587 13.707,53.368"/>
	</g>
	<g>
		<polygon fill="rgba(255,255,255,0.8)" points="10,0 33,0 33,30 31,30 31,2 10,2" />
		<polygon fill="rgba(255,255,255,0.8)" points="10,162 33,162 33,132 31,132 31,160 10,160" />
	</g>
</g>
</svg>
